<svg xmlns="http://www.w3.org/2000/svg" width="146" height="44" fill="none" viewBox="0 0 146 44"><path fill="#fff" fill-rule="evenodd" d="M44.067 4.60064V34.9799L35.3872 43.6597H0.667969V0.260742H9.34777V4.60064H18.0276V0.260742H26.7074V4.60064H35.3872V0.260742H44.067V4.60064ZM35.3872 28.9041V17.6203H9.34777V34.9799H29.3113L35.3872 28.9041Z" clip-rule="evenodd"/><path fill="#fff" fill-rule="evenodd" d="M127.541 21.8152L127.575 36.5997L130.012 36.6362L132.448 36.6725V30.0681C132.448 23.1163 132.495 22.4593 133.051 21.5788C133.84 20.3292 135.006 19.7911 136.762 19.8662C138.803 19.9534 140.118 20.9868 140.456 22.7688C140.537 23.1964 140.593 26.1551 140.593 30.0797V36.6725L143.029 36.6362L145.466 36.5997V28.9905C145.466 20.7019 145.462 20.6464 144.695 19.112C144.155 18.0299 142.749 16.6596 141.633 16.1269C139.101 14.9189 135.983 14.8806 133.567 16.0279C132.77 16.4065 132.588 16.4514 132.525 16.2864C132.483 16.1764 132.448 14.0489 132.448 11.5586V7.03076H129.978H127.507L127.541 21.8152ZM60.751 22.7163V36.6665L65.9914 36.6641C72.9771 36.6607 74.1108 36.4975 76.8098 35.1059C79.1845 33.8814 81.1311 31.4757 81.9743 28.7236C82.8033 26.0171 82.8892 20.5748 82.1535 17.3766C81.2775 13.5692 78.5928 10.6364 74.8892 9.441C73.0274 8.84014 72.0867 8.76659 66.2584 8.76632L60.751 8.76619V22.7163ZM66.0915 22.7163V31.7272H68.8427C72.569 31.7272 73.6252 31.4416 75.1909 30.0108C76.7987 28.5416 77.3078 26.7547 77.3058 22.5863C77.3037 17.9814 76.4185 15.8168 74.0175 14.5459C72.5926 13.7916 72.0722 13.7055 68.9378 13.7055H66.0915V22.7163ZM92.9947 15.3681C90.8299 15.8069 89.5246 16.4655 88.1926 17.7912C87.3122 18.6674 86.5804 19.9166 86.1674 21.2479C85.9483 21.9541 85.9191 22.5225 85.9202 26.0537C85.9216 30.5863 86.008 31.1146 87.0168 32.7546C88.4775 35.129 90.5857 36.3937 93.7793 36.8116C95.9539 37.096 98.7538 36.5806 100.519 35.571C101.568 34.9711 102.836 33.7251 103.319 32.8176C103.777 31.9583 104.207 30.4853 104.09 30.1786C104.028 30.0183 103.615 29.9918 101.656 30.0221L99.2956 30.0585L98.949 30.6862C98.5397 31.4272 98.0891 31.8023 97.2041 32.1385C95.6777 32.7185 93.6514 32.5819 92.3681 31.8127C91.2782 31.1596 90.761 30.1804 90.7363 28.7236L90.7249 28.0561L97.5136 28.0215L104.302 27.9869L104.243 25.0179C104.178 21.7618 104.072 21.149 103.306 19.5931C102.537 18.0303 100.646 16.4283 98.7961 15.7709C97.2314 15.2148 94.639 15.0348 92.9947 15.3681ZM107.378 18.0107L107.414 20.3134L112.454 20.3484C115.226 20.3676 117.495 20.4161 117.495 20.4559C117.495 20.5524 109.484 29.6261 107.72 31.5269L107.349 31.9274L107.348 34.2969L107.347 36.6665H115.759H124.17V34.3303V31.9942H119.038C116.215 31.9942 113.876 31.9464 113.84 31.888C113.804 31.8297 113.966 31.5743 114.201 31.3207C114.436 31.0671 115.677 29.6881 116.959 28.2563C118.241 26.8246 119.352 25.5874 119.427 25.507C119.502 25.4265 120.019 24.8558 120.574 24.2388C121.13 23.6217 122.136 22.5055 122.811 21.7584L124.037 20.3999V18.0539V15.7079H115.689H107.341L107.378 18.0107ZM93.2327 20.1024C91.4764 20.701 90.4985 22.0633 90.6802 23.6587L90.7249 24.0513H95.0642H99.4034L99.3813 23.2339C99.3492 22.0359 98.8263 21.1614 97.7264 20.4655C96.7273 19.8333 94.5405 19.6566 93.2327 20.1024Z" clip-rule="evenodd"/></svg>